<?xml version="1.0" encoding="utf-8"?><svg viewBox="0 0 32 32" xmlns="http://www.w3.org/2000/svg" xmlns:xlink="http://www.w3.org/1999/xlink"><style>:root>svg{display:none}:root>svg:target{display:block}</style><svg viewBox="0 0 32 32" id="arrow-left" xmlns="http://www.w3.org/2000/svg"><path fill-rule="evenodd" clip-rule="evenodd" d="M12.552 16l9.724 9.724-1.886 1.886L8.781 16l11.61-11.61 1.885 1.886L12.552 16z"/></svg><svg viewBox="0 0 32 32" id="arrow-right" xmlns="http://www.w3.org/2000/svg"><path fill-rule="evenodd" clip-rule="evenodd" d="M19.448 16L9.724 6.276l1.886-1.885L23.218 16 11.609 27.61l-1.885-1.886L19.448 16z"/></svg><svg viewBox="0 0 30 30" id="icon" xmlns="http://www.w3.org/2000/svg"><path fill-rule="evenodd" clip-rule="evenodd" d="M15 29.667C6.9 29.667.333 23.1.333 15S6.9.333 15 .333 29.667 6.9 29.667 15 23.1 29.667 15 29.667zM15 27c6.628 0 12-5.373 12-12S21.628 3 15 3C8.373 3 3 8.373 3 15s5.373 12 12 12zM13.276 8.724l-1.885 1.885L15.78 15l-4.39 4.391 1.885 1.886L19.552 15l-6.276-6.276z"/></svg></svg>