<svg width="30" height="30" viewBox="0 0 30 30"  xmlns="http://www.w3.org/2000/svg">
<path fill-rule="evenodd" clip-rule="evenodd" d="M15 29.6666C6.89986 29.6666 0.333374 23.1001 0.333374 14.9999C0.333374 6.89974 6.89986 0.333252 15 0.333252C23.1002 0.333252 29.6667 6.89974 29.6667 14.9999C29.6667 23.1001 23.1002 29.6666 15 29.6666ZM15 26.9999C21.6275 26.9999 27 21.6273 27 14.9999C27 8.3725 21.6275 2.99992 15 2.99992C8.37262 2.99992 3.00004 8.3725 3.00004 14.9999C3.00004 21.6273 8.37262 26.9999 15 26.9999ZM13.2762 8.72378L11.3906 10.6094L15.7811 14.9999L11.3906 19.3904L13.2762 21.2761L19.5523 14.9999L13.2762 8.72378Z"/>
</svg>
